<?xml version="1.0" standalone="no"?>
<!DOCTYPE svg PUBLIC "-//W3C//DTD SVG 20010904//EN"
 "http://www.w3.org/TR/2001/REC-SVG-20010904/DTD/svg10.dtd">
<svg version="1.0" xmlns="http://www.w3.org/2000/svg"
 width="140.000000pt" height="140.000000pt" viewBox="0 0 140.000000 140.000000"
 preserveAspectRatio="xMidYMid meet">
<metadata>
Created by potrace 1.11, written by Peter Selinger 2001-2013
</metadata>
<g transform="translate(0.000000,140.000000) scale(0.100000,-0.100000)"
fill="#000000" stroke="none">
<path d="M605 1373 c-67 -14 -140 -35 -182 -54 -198 -92 -339 -262 -387 -469
-22 -95 -15 -284 14 -370 76 -228 244 -386 477 -452 100 -28 275 -30 373 -4
280 74 457 297 464 585 2 47 -1 100 -5 116 l-8 31 -321 0 -320 0 0 -106 0
-107 206 1 205 2 -6 -26 c-22 -93 -99 -188 -188 -233 -64 -33 -81 -37 -172
-44 -137 -10 -251 28 -346 115 -58 53 -114 144 -124 202 -3 18 -8 37 -11 41
-9 15 -5 154 6 203 43 194 217 334 418 338 126 2 219 -28 303 -98 22 -19 44
-34 47 -34 4 0 43 37 87 81 l80 80 -55 50 c-64 59 -188 121 -281 142 -60 13
-226 19 -274 10z"/>
</g>
</svg>
